<?xml version="1.0" encoding="utf-8"?>
<!-- Generator: Adobe Illustrator 15.0.0, SVG Export Plug-In  -->
<!DOCTYPE svg PUBLIC "-//W3C//DTD SVG 1.1//EN" "http://www.w3.org/Graphics/SVG/1.1/DTD/svg11.dtd" [
	<!ENTITY ns_flows "http://ns.adobe.com/Flows/1.0/">
]>
<svg version="1.1"
	 xmlns="http://www.w3.org/2000/svg" xmlns:xlink="http://www.w3.org/1999/xlink" xmlns:a="http://ns.adobe.com/AdobeSVGViewerExtensions/3.0/"
	 x="0px" y="0px" width="178px" height="178px" viewBox="-1 -1 178 178" enable-background="new -1 -1 178 178"
	 xml:space="preserve">
<defs>
</defs>
<circle fill="#FFFFFF" cx="88.065918" cy="88.0664063" r="85.065918"/>
<path d="M124.7353516,104.512207l15.4003906-33.3388672l-2.7070313-6.9384766l-5.8964844,9.7495117l-10.3320313,2.2875977
	l-6.1513672-6.3095703l-9.9375,2.6030273l-7.6494141-6.8618164l-8.5966797,1.734375l-8.2817383-6.1503906l-2.8383789,0.7089844
	l-5.6777344,0.5527344l-5.3632813-5.6000977L61.4443359,35.128418L38.0898438,70.328125l21.6616211,34.3520508
	c0,0-9.715332,26.9550781-18.5859375,51.2802734c13.8491211,9.7705078,30.730957,15.5283203,48.9682617,15.5283203
	c2.7519531,0,5.4697266-0.1425781,8.1542969-0.3974609l14.09375-53.8876953L124.7353516,104.512207z M65.3369141,108.9282227
	l-0.1699219-0.1855469l0.1870117,0.1230469L65.3369141,108.9282227z M102.8232422,118.0737305l0.0332031-0.1298828l0.7265625-0.0625
	L102.8232422,118.0737305z"/>
<circle fill="none" stroke="#0F577D" stroke-width="6" stroke-miterlimit="10" cx="88.065918" cy="88.0664063" r="85.065918"/>
<polygon points="68.9291992,24.7851563 78.0131836,23.3056641 85.4589844,28.5517578 83.0263672,40.0952148 76.1518555,39.0439453 
	65.3212891,34.3061523 "/>
<path fill-rule="evenodd" clip-rule="evenodd" fill="#F7941D" d="M94.2412109,49.8125
	c-17.6420898,0-31.9418945,14.2978516-31.9418945,31.9414063c0,17.6445313,14.2998047,31.953125,31.9418945,31.953125
	c17.640625,0,31.9541016-14.3085938,31.9541016-31.953125C126.1953125,64.1083984,111.8818359,49.8125,94.2412109,49.8125
	L94.2412109,49.8125z"/>
<path fill-rule="evenodd" clip-rule="evenodd" fill="#FFFFFF" d="M90.7568359,82.6079102l-1.1079102,5.9628906
	c-0.1328125,0.8320313-0.2011719,1.3505859-0.1865234,1.4897461c0.0332031,0.2021484,0.1176758,0.3540039,0.253418,0.4458008
	c0.1459961,0.0957031,0.5419922,0.2246094,1.2158203,0.3325195l2.0048828,0.3867188
	c1.1816406,0.2109375,2.1650391,0.2895508,2.9765625,0.2143555c0.8105469-0.0732422,1.5507813-0.4072266,2.2226563-0.9912109
	c0.6621094-0.5913086,1.0820313-1.3549805,1.2695313-2.3203125c0.1416016-0.8120117,0.0878906-1.5327148-0.1875-2.1757813
	c-0.28125-0.6333008-0.765625-1.1743164-1.4726563-1.6044922c-0.7109375-0.4326172-1.8427734-0.777832-3.4130859-1.074707
	L90.7568359,82.6079102L90.7568359,82.6079102L90.7568359,82.6079102z M92.7685547,71.8203125l-1.2568359,6.7104492
	l3.0263672,0.5776367c1.5722656,0.2900391,2.7753906,0.3696289,3.5830078,0.2451172
	c0.8056641-0.1123047,1.4345703-0.40625,1.9248047-0.8676758c0.46875-0.4526367,0.7900391-1.0439453,0.9179688-1.746582
	c0.1435547-0.7270508,0.0791016-1.3710938-0.1953125-1.9516602c-0.2539063-0.5693359-0.7128906-1.0224609-1.3671875-1.3935547
	c-0.640625-0.3427734-1.8369141-0.6796875-3.6074219-1.0097656L92.7685547,71.8203125L92.7685547,71.8203125L92.7685547,71.8203125z
	 M91.5053711,62.2924805l4.6645508,0.8857422l-0.8535156,4.5239258l3.0009766,0.5678711l0.8515625-4.5371094l4.6650391,0.8730469
	l-0.9091797,4.8515625c0.6650391,0.2602539,1.2734375,0.5327148,1.7558594,0.8613281
	c1.2509766,0.8320313,2.1650391,1.8276367,2.7128906,3.0097656c0.5429688,1.1811523,0.6826172,2.3999023,0.4433594,3.6464844
	c-0.1708984,0.9057617-0.5244141,1.7353516-1.0683594,2.4946289c-0.5371094,0.7353516-1.2314453,1.3544922-2.0878906,1.8422852
	c-0.8486328,0.4838867-1.9179688,0.8217773-3.1894531,1.0107422c1.2197266,0.5634766,2.1464844,1.1137695,2.7539063,1.6381836
	c0.8828125,0.7402344,1.5224609,1.6586914,1.9199219,2.7700195c0.3925781,1.0947266,0.4707031,2.2553711,0.2441406,3.4868164
	c-0.2744141,1.4658203-0.96875,2.7329102-2.0722656,3.777832c-1.1142578,1.0830078-2.5439453,1.7910156-4.2705078,2.1264648
	c-0.6416016,0.1113281-1.3642578,0.1850586-2.1660156,0.1962891l-0.9306641,4.9101563l-4.6621094-0.8603516l0.8515625-4.5424805
	c-0.1152344-0.0390625-0.2246094-0.0424805-0.3408203-0.065918L90.152832,95.269043l-0.847168,4.5317383l-4.6650391-0.8701172
	l0.8452148-4.5390625l-7.1142578-1.3378906l0.7099609-3.8115234l1.0908203,0.2055664
	c0.7290039,0.1445313,1.2260742,0.1777344,1.5102539,0.0800781c0.2841797-0.0756836,0.4892578-0.2207031,0.6386719-0.4233398
	c0.15625-0.2119141,0.3081055-0.7226563,0.453125-1.5195313l2.8652344-15.3637695
	c0.1601563-0.8071289,0.2050781-1.34375,0.1425781-1.5913086c-0.0664063-0.2446289-0.215332-0.4619141-0.4516602-0.6323242
	c-0.2280273-0.1870117-0.7084961-0.3535156-1.4370117-0.4648438l-1.0888672-0.2216797l0.7143555-3.8139648l7.1210938,1.34375
	L91.5053711,62.2924805L91.5053711,62.2924805L91.5053711,62.2924805z"/>
<polygon points="72.8266602,60.1738281 87.3798828,58.3125 92.9648438,48.8354492 92.1181641,42.9116211 77.3959961,41.7275391 
	61.4887695,35.128418 43.9335938,61.5878906 58.996582,61.9936523 66.7495117,56.9492188 "/>
<polygon points="89.5209961,64.9365234 96.8349609,63.5014648 107.6005859,31.0678711 99.1660156,25.5063477 88.8930664,25.5883789 
	85.6289063,40.0952148 93.7519531,40.5673828 94.9365234,49.7055664 88.8623047,60.3647461 84.0512695,61.3896484 "/>
<polygon points="105.5966797,69.5048828 114.2939453,67.7797852 126.6386719,41.3583984 120.3212891,35.1523438 
	109.7548828,33.4223633 99.3916016,64.2045898 "/>
<polygon points="140.1210938,56.1357422 135.7216797,48.5214844 127.7431641,44.6708984 117.0400391,68.1035156 
	122.1816406,73.059082 129.6279297,72.3818359 "/>
<polygon fill="none" stroke="#0F577D" stroke-miterlimit="10" points="65.3369141,108.9282227 65.3540039,108.8657227 
	65.1669922,108.7426758 "/>
<polygon fill="none" stroke="#0F577D" stroke-miterlimit="10" points="102.8232422,118.0737305 103.5830078,117.8813477 
	102.8564453,117.9438477 "/>
</svg>
